<?xml version="1.0" standalone="no"?>
<!DOCTYPE svg PUBLIC "-//W3C//DTD SVG 20010904//EN"
 "http://www.w3.org/TR/2001/REC-SVG-20010904/DTD/svg10.dtd">
<svg version="1.0" xmlns="http://www.w3.org/2000/svg"
 width="650.000000pt" height="650.000000pt" viewBox="0 0 650.000000 650.000000"
 preserveAspectRatio="xMidYMid meet">
<metadata>
Created by potrace 1.11, written by Peter Selinger 2001-2013
</metadata>
<g transform="translate(0.000000,650.000000) scale(0.100000,-0.100000)"
fill="#000000" stroke="none">
<path d="M2965 6334 c-154 -90 -291 -170 -305 -178 -23 -12 -131 -74 -835
-481 -355 -205 -529 -306 -735 -424 -102 -59 -290 -168 -417 -242 l-233 -134
3 -1628 2 -1628 200 -116 c110 -63 261 -150 335 -193 74 -43 151 -86 170 -97
19 -11 132 -76 250 -145 118 -68 261 -151 318 -184 57 -32 124 -72 150 -87 26
-15 56 -32 67 -37 11 -6 29 -16 40 -22 27 -18 82 -50 135 -80 25 -14 133 -76
240 -138 107 -62 260 -151 340 -197 80 -46 152 -88 160 -93 8 -6 22 -13 30
-17 8 -4 74 -42 148 -85 73 -43 135 -78 138 -78 2 0 23 -12 45 -27 l41 -27 51
29 c29 16 192 109 362 208 303 175 354 204 425 245 19 11 177 102 350 202 173
100 331 191 350 202 19 11 64 37 100 58 36 21 81 47 100 58 54 30 538 310 603
348 32 19 61 34 64 34 4 0 14 6 22 14 9 7 41 27 71 43 30 17 115 65 188 108
l132 77 0 1627 0 1627 -87 50 c-49 28 -293 169 -543 314 -250 144 -475 274
-500 288 -25 14 -78 45 -118 69 -41 24 -76 43 -79 43 -3 0 -17 8 -31 19 -15
10 -47 29 -72 43 -43 24 -286 164 -565 326 -71 41 -204 118 -295 170 -91 52
-178 103 -195 112 -214 124 -331 190 -335 189 -3 -1 -131 -75 -285 -165z m565
-354 c146 -84 330 -191 409 -237 79 -45 145 -83 148 -83 3 0 17 -8 31 -19 15
-10 52 -32 82 -49 30 -16 179 -102 330 -189 151 -88 295 -171 320 -185 41 -23
277 -159 716 -414 89 -51 169 -96 178 -100 15 -6 16 -121 16 -1453 l0 -1447
-67 -39 c-38 -22 -77 -44 -88 -50 -11 -6 -52 -30 -90 -52 -39 -22 -86 -50
-105 -61 -34 -19 -240 -137 -585 -337 -93 -54 -296 -171 -451 -261 -154 -89
-298 -172 -320 -184 -21 -12 -97 -56 -169 -98 -71 -41 -143 -83 -160 -92 -16
-10 -80 -46 -141 -82 -61 -36 -117 -68 -125 -71 -8 -4 -21 -11 -29 -17 -8 -5
-50 -30 -93 -55 -67 -39 -81 -44 -100 -34 -30 16 -962 553 -1227 707 -19 12
-78 45 -130 75 -201 115 -746 431 -775 448 -16 11 -37 22 -45 26 -8 4 -69 39
-135 77 -66 39 -132 77 -146 84 l-26 14 -1 1446 0 1446 22 11 c11 7 208 120
436 252 228 132 469 271 535 309 66 38 127 74 137 79 18 11 100 58 168 97 25
14 86 49 135 78 50 29 111 64 136 79 45 26 311 179 372 214 18 10 68 40 112
65 44 26 92 54 107 62 35 20 174 100 268 154 41 24 77 43 80 41 3 -1 124 -71
270 -155z"/>
<path d="M2855 5059 c-170 -99 -328 -191 -350 -204 -137 -78 -307 -177 -336
-194 -19 -12 -41 -24 -49 -28 -8 -4 -46 -26 -85 -48 -38 -23 -90 -53 -115 -67
-72 -41 -227 -130 -330 -190 l-95 -55 -3 -977 -2 -976 155 0 c141 0 155 2 156
18 0 9 1 407 1 883 l1 867 126 73 c313 181 944 546 993 573 21 12 84 48 140
81 57 33 117 67 133 77 17 10 44 24 60 33 17 8 41 24 54 34 l24 19 -74 127
c-41 71 -79 130 -84 131 -6 1 -149 -78 -320 -177z"/>
<path d="M4723 4170 c-18 -5 -18 -38 -18 -878 0 -572 -3 -877 -10 -882 -9 -8
-95 -58 -355 -208 -52 -30 -108 -62 -125 -72 -174 -101 -673 -388 -725 -418
-25 -14 -76 -44 -115 -67 -38 -23 -98 -57 -132 -76 -48 -26 -61 -38 -57 -52 3
-9 37 -71 76 -137 l70 -120 26 14 c15 8 81 45 147 83 66 39 181 105 255 148
74 42 250 144 390 225 140 81 384 222 542 313 157 91 295 171 306 178 18 12
19 36 19 980 l0 969 -36 1 c-141 4 -242 3 -258 -1z"/>
<path d="M4110 3923 c-52 -30 -113 -65 -135 -78 -22 -12 -213 -123 -425 -245
-212 -123 -405 -234 -430 -248 -25 -14 -61 -35 -80 -47 -19 -12 -57 -34 -85
-50 -75 -42 -168 -95 -185 -105 -40 -25 -182 -107 -345 -200 -99 -56 -206
-118 -237 -137 l-57 -34 19 -32 c10 -18 25 -43 33 -57 41 -74 96 -169 103
-179 2 -2 31 14 66 35 35 21 65 39 68 39 3 0 16 8 30 17 23 14 164 96 269 156
25 14 68 38 95 55 28 16 65 37 81 47 61 34 160 91 175 100 20 12 174 102 225
130 34 19 546 315 655 378 19 12 62 36 95 55 33 19 76 43 95 54 19 11 69 40
110 64 41 24 87 50 102 58 l28 14 -18 31 c-10 17 -44 77 -77 134 -32 56 -64
102 -69 102 -6 -1 -54 -26 -106 -57z"/>
</g>
</svg>
