<?xml version="1.0" encoding="utf-8"?>
<!-- Generator: Adobe Illustrator 21.0.0, SVG Export Plug-In . SVG Version: 6.00 Build 0)  -->
<svg version="1.1" id="レイヤー_1" xmlns="http://www.w3.org/2000/svg" xmlns:xlink="http://www.w3.org/1999/xlink" x="0px"
	 y="0px" viewBox="0 0 512 512" style="enable-background:new 0 0 512 512;" xml:space="preserve">
<path d="M446,416L345,315c7.2-9.7,13.3-20.3,17.9-31.4c7.3-17.7,11.2-37,11.2-56.1s-3.8-38.4-11.2-56.1s-18.2-34-31.8-47.5
	s-29.8-24.4-47.5-31.8S246.6,81,227.5,81s-38.4,3.8-56.1,11.2s-34,18.2-47.5,31.8s-24.4,29.8-31.8,47.5S81,208.4,81,227.5
	s3.8,38.4,11.2,56.1s18.2,34,31.8,47.5s29.8,24.4,47.5,31.8s37,11.2,56.1,11.2s38.4-3.8,56.1-11.2c11.1-4.6,21.7-10.6,31.4-17.9
	L416,446L446,416z"/>
</svg>
