<svg xmlns="http://www.w3.org/2000/svg" width="744.094" height="1500"><g font-weight="300" letter-spacing="0" word-spacing="0" font-family="Existence Stencil Light"><text style="text-align:start;line-height:100%;-inkscape-font-specification:'Existence Stencil Light, Light'" x="10" y="-277.638" font-size="64" fill="#f2f2f2" transform="translate(0 447.638)"><tspan x="10" y="-277.638">Works:</tspan></text><text style="text-align:start;line-height:100%;-inkscape-font-specification:'Existence Stencil Light, Light'" x="10" y="-177.638" font-size="64" fill="#f2f2f2" transform="translate(0 447.638)"><tspan x="10" y="-177.638">About:</tspan></text><text y="-77.638" x="10" style="text-align:start;line-height:100%;-inkscape-font-specification:'Existence Stencil Light, Light'" font-size="64" fill="#f2f2f2" transform="translate(0 447.638)"><tspan y="-77.638" x="10">Links:</tspan></text><text style="text-align:start;line-height:100%;-inkscape-font-specification:'Existence Stencil Light, Light'" x="10" y="22.362" font-size="64" fill="#f2f2f2" transform="translate(0 447.638)"><tspan x="10" y="22.362">Contact:</tspan></text><text style="text-align:start;line-height:100%;-inkscape-font-specification:'Existence Stencil Light, Light'" x="10" y="122.362" font-size="72" fill="#999" transform="translate(0 447.638)"><tspan x="10" y="122.362">xsTus</tspan></text><text style="text-align:start;line-height:100%;-inkscape-font-specification:'Existence Stencil Light, Light'" x="10" y="522.362" font-size="72" fill="#999" transform="translate(0 447.638)"><tspan x="10" y="522.362">Other</tspan></text><text style="text-align:start;line-height:100%;-inkscape-font-specification:'Existence Stencil Light, Light'" x="10" y="722.362" font-size="72" fill="#999" transform="translate(0 447.638)"><tspan x="10" y="722.362">Me</tspan></text><text style="text-align:start;line-height:100%;-inkscape-font-specification:'Existence Stencil Light, Light'" x="10" y="622.362" font-size="72" fill="#999" transform="translate(0 447.638)"><tspan x="10" y="622.362">Site</tspan></text><text style="text-align:start;line-height:100%;-inkscape-font-specification:'Existence Stencil Light, Light'" x="10" y="822.362" font-size="72" fill="#999" transform="translate(0 447.638)"><tspan x="10" y="822.362">Blog</tspan></text><text style="text-align:start;line-height:100%;-inkscape-font-specification:'Existence Stencil Light, Light'" x="10" y="922.362" font-size="72" fill="#999" transform="translate(0 447.638)"><tspan x="10" y="922.362">Mail</tspan></text><text style="text-align:start;line-height:100%;-inkscape-font-specification:'Existence Stencil Light, Light'" x="10" y="222.362" font-size="72" fill="#999" transform="translate(0 447.638)"><tspan x="10" y="222.362">RegNotifier</tspan></text><text style="text-align:start;line-height:100%;-inkscape-font-specification:'Existence Stencil Light, Light'" x="11.13" y="302.248" transform="translate(0 447.638) scale(.938 1.067)" font-size="67.507" fill="#999"><tspan x="11.13" y="302.248">TwiTokenGetter</tspan></text><text style="text-align:start;line-height:100%;-inkscape-font-specification:'Existence Stencil Light, Light'" x="7.941" y="377.616" transform="translate(0 447.638) scale(.896 1.117)" font-size="64.484" fill="#999"><tspan x="7.941" y="377.616">TranslucentHeader</tspan></text><text style="text-align:start;line-height:100%;-inkscape-font-specification:'Existence Stencil Light, Light'" x="10" y="1022.362" font-size="72" fill="#999" transform="translate(0 447.638)"><tspan x="10" y="1022.362">Form</tspan></text></g></svg>